<svg width="24" height="24" viewBox="0 0 24 24" fill="none" xmlns="http://www.w3.org/2000/svg">
<g clip-path="url(#clip0_605_7088)">
<path d="M12.0007 16.0002C14.6007 16.0002 16.6673 13.9335 16.6673 11.3335V6.00016C16.6673 3.40016 14.6007 1.3335 12.0007 1.3335C9.40065 1.3335 7.33398 3.40016 7.33398 6.00016V11.3335C7.33398 13.9335 9.40065 16.0002 12.0007 16.0002Z" fill="#3455D2"/>
<path d="M20 11.3335H18.6667C18.6667 15.0002 15.6667 18.0002 12 18.0002C8.33333 18.0002 5.33333 15.0002 5.33333 11.3335H4C4 15.5335 7.2 18.9335 11.3333 19.2668V21.3335H9.33333C8.93333 21.3335 8.66667 21.6002 8.66667 22.0002C8.66667 22.4002 8.93333 22.6668 9.33333 22.6668H14.6667C15.0667 22.6668 15.3333 22.4002 15.3333 22.0002C15.3333 21.6002 15.0667 21.3335 14.6667 21.3335H12.6667V19.2668C16.8 18.9335 20 15.5335 20 11.3335Z" fill="#3455D2"/>
</g>
<defs>
<clipPath id="clip0_605_7088">
<rect width="24" height="24" fill="white"/>
</clipPath>
</defs>
</svg>
