<svg width="24" height="24" viewBox="0 0 24 24" fill="none" xmlns="http://www.w3.org/2000/svg">
<g clip-path="url(#clip0_605_7083)">
<path d="M19.9991 11.3335H18.6658C18.6658 12.5335 18.3324 13.6668 17.7324 14.6668L18.7324 15.6668C19.5324 14.3335 19.9324 12.8668 19.9991 11.3335Z" fill="#931C12"/>
<path d="M16.6663 11.3333V6.00001C16.6663 3.40001 14.5329 1.33334 11.9329 1.40001C9.99961 1.40001 8.19961 2.66667 7.59961 4.53334L16.2663 13.2C16.5329 12.6 16.6663 11.9333 16.6663 11.3333Z" fill="#931C12"/>
<path d="M16.7991 17.7334L21.3991 22.3334L22.3324 21.4001L2.66576 1.7334L1.73242 2.66673L7.33242 8.26673V11.3334C7.33242 13.9334 9.39909 16.0001 11.9991 16.0001C12.8658 16.0001 13.6658 15.8001 14.3991 15.3334L15.8658 16.8001C14.7324 17.6001 13.3991 18.0001 11.9991 18.0001C8.39909 18.1334 5.46576 15.2667 5.33242 11.7334V11.3334H3.99909C4.06576 15.4667 7.19909 18.9334 11.3324 19.3334V21.3334H9.33242C8.93242 21.3334 8.66576 21.6001 8.66576 22.0001C8.66576 22.4001 8.93242 22.6667 9.33242 22.6667H14.6658C15.0658 22.6667 15.3324 22.4001 15.3324 22.0001C15.3324 21.6001 15.0658 21.3334 14.6658 21.3334H12.6658V19.3334C14.1324 19.2001 15.5991 18.6667 16.7991 17.7334Z" fill="#931C12"/>
</g>
<defs>
<clipPath id="clip0_605_7083">
<rect width="24" height="24" fill="white"/>
</clipPath>
</defs>
</svg>
