<svg width="24" height="24" viewBox="0 0 24 24" fill="none" xmlns="http://www.w3.org/2000/svg">
<path d="M3.27918 2.22015C3.21051 2.14647 3.12771 2.08736 3.03572 2.04637C2.94372 2.00538 2.8444 1.98334 2.7437 1.98156C2.643 1.97979 2.54297 1.99831 2.44958 2.03603C2.35619 2.07375 2.27136 2.1299 2.20014 2.20112C2.12892 2.27233 2.07278 2.35717 2.03505 2.45056C1.99733 2.54394 1.97881 2.64397 1.98059 2.74468C1.98236 2.84538 2.0044 2.94469 2.0454 3.03669C2.08639 3.12869 2.14549 3.21149 2.21918 3.28015L3.78618 4.84715C3.24871 5.1181 2.79704 5.53298 2.48152 6.04556C2.16599 6.55813 1.99901 7.14825 1.99918 7.75015V16.2502C1.99918 17.1121 2.34159 17.9388 2.95108 18.5483C3.56057 19.1577 4.38722 19.5002 5.24918 19.5002H12.7492C13.4845 19.5002 14.1981 19.2509 14.7735 18.793C15.3489 18.3351 15.7521 17.6957 15.9172 16.9792L20.7182 21.7812C20.8589 21.9219 21.0497 22.0009 21.2487 22.0009C21.4477 22.0009 21.6385 21.9219 21.7792 21.7812C21.9199 21.6405 21.9989 21.4496 21.9989 21.2507C21.9989 21.0517 21.9199 20.8609 21.7792 20.7202L3.27918 2.22015ZM16.9992 13.8182L21.5032 18.3232C21.6542 18.2351 21.7794 18.1089 21.8664 17.9573C21.9535 17.8057 21.9992 17.634 21.9992 17.4592V6.54015C21.9992 6.34919 21.9446 6.1622 21.8418 6.00128C21.739 5.84037 21.5922 5.71227 21.4189 5.63212C21.2455 5.55198 21.0529 5.52314 20.8637 5.54902C20.6745 5.5749 20.4966 5.65441 20.3512 5.77815L16.9992 8.62815V13.8182ZM7.68118 4.50015L15.9992 12.8182V7.75015C15.9992 6.8882 15.6568 6.06155 15.0473 5.45206C14.4378 4.84256 13.6111 4.50015 12.7492 4.50015H7.68118Z" fill="#931C12"/>
</svg>
